<svg width="43" height="59" viewBox="0 0 43 59" fill="none" xmlns="http://www.w3.org/2000/svg">
<path d="M21.5 1C10.2318 1 1 10.2427 1 21.5243C1 26.8252 3.03642 30.9029 5.61589 34.9806L21.5 57L37.3841 34.9806C40.2351 31.1748 42 26.5534 42 21.5243C42 10.2427 32.7682 1 21.5 1Z" fill="#FF7A00" stroke="#CC6200" stroke-width="1.5"/>
<path d="M31.932 18.5128C31.9259 20.2546 32.8459 22.1208 34.6919 22.8732L33.8566 24.0581C32.5614 23.5189 31.6657 22.4466 31.1694 21.1432C30.6731 22.5592 29.7591 23.7441 28.4579 24.3306L27.5742 23.1339C29.402 22.334 30.3462 20.3375 30.3462 18.5128V17.8492H28.01V16.6169H34.2319V17.8492H31.932V18.5128ZM35.3213 26.3568V15.5742H36.8828V26.3568H35.3213Z" fill="white"/>
<path d="M27.0189 21.6052V22.8138H22.7096V26.3448H21.1843V22.8138H16.9355V21.6052H27.0189ZM18.1218 20.444V16.0955H25.8084V20.444H18.1218ZM19.647 19.2591H24.2711V17.2922H19.647V19.2591Z" fill="white"/>
<path d="M15.1193 16.1785V17.0908C15.1254 18.0032 15.1254 19.0281 14.8772 20.3493H16.3177V21.5579H6.23438V20.3493H13.3036C13.5457 19.1466 13.576 18.2402 13.582 17.3871H7.46907V16.1785H15.1193ZM7.51749 26.1553V22.5058H9.0427V24.9467H15.434V26.1553H7.51749Z" fill="white"/>
</svg>
