<svg width="32" height="32" viewBox="0 0 32 32" fill="none" xmlns="http://www.w3.org/2000/svg">
<path d="M6.76042 23.2113H25.2391C26.3469 23.2113 27 22.6307 27 21.7769C27 20.5914 25.8221 19.5247 24.8078 18.4697C24.0383 17.6518 23.8284 15.9686 23.7468 14.6055C23.6538 10.0536 22.4763 6.91218 19.3634 5.77418C18.9321 4.23308 17.7194 3 16.0057 3C14.2796 3 13.0793 4.23308 12.6361 5.77418C9.5351 6.91218 8.34574 10.053 8.26416 14.605C8.17114 15.9686 7.97266 17.6518 7.19169 18.4697C6.18887 19.5247 5 20.5914 5 21.7774C5 22.6307 5.66457 23.2113 6.76042 23.2113ZM12.4496 24.8237C12.5898 26.5545 14.0234 28 16.0057 28C17.9756 28 19.4097 26.5545 19.5614 24.8237H12.4496Z" fill="#9EA3AB"/>
</svg>
