<svg width="24" height="24" viewBox="0 0 24 24" fill="none" xmlns="http://www.w3.org/2000/svg">
<path fill-rule="evenodd" clip-rule="evenodd" d="M12 20C16.4183 20 20 16.4183 20 12C20 7.58172 16.4183 4 12 4C7.58172 4 4 7.58172 4 12C4 16.4183 7.58172 20 12 20ZM16.6971 10.717C17.0931 10.332 17.102 9.69891 16.717 9.30292C16.332 8.90694 15.6989 8.89802 15.3029 9.28301L10.8571 13.6053L8.69708 11.5052C8.30109 11.1202 7.66799 11.1292 7.28301 11.5251C6.89802 11.9211 6.90694 12.5542 7.30292 12.9392L10.8571 16.3947L16.6971 10.717Z" fill="white"/>
</svg>
