<svg width="24" height="25" viewBox="0 0 24 25" fill="none" xmlns="http://www.w3.org/2000/svg">
<path d="M7.61605 9.212L10.821 6.884C11.181 6.62105 11.6185 6.4859 12.064 6.5C12.6074 6.51414 13.1329 6.69692 13.5677 7.02301C14.0026 7.3491 14.3253 7.80236 14.491 8.32C14.677 8.90333 14.847 9.297 15.001 9.501C15.4667 10.1215 16.0703 10.6252 16.7642 10.9721C17.4581 11.3191 18.2232 11.4998 18.999 11.5V13.5C17.9666 13.5007 16.9467 13.2727 16.0129 12.8323C15.079 12.3919 14.2543 11.7501 13.598 10.953L12.9 14.909L14.961 16.638L17.184 22.746L15.304 23.43L13.265 17.826L9.87505 14.981C9.59667 14.7565 9.38359 14.4614 9.25801 14.1265C9.13243 13.7916 9.09895 13.4292 9.16105 13.077L9.67005 10.192L8.99305 10.684L6.86605 13.612L5.24805 12.436L7.59905 9.2L7.61605 9.212ZM13.499 6C12.9686 6 12.4599 5.78929 12.0848 5.41421C11.7098 5.03914 11.499 4.53043 11.499 4C11.499 3.46957 11.7098 2.96086 12.0848 2.58579C12.4599 2.21071 12.9686 2 13.499 2C14.0295 2 14.5382 2.21071 14.9133 2.58579C15.2883 2.96086 15.499 3.46957 15.499 4C15.499 4.53043 15.2883 5.03914 14.9133 5.41421C14.5382 5.78929 14.0295 6 13.499 6ZM10.529 19.181L7.31505 23.011L5.78305 21.726L8.75805 18.18L9.50405 16L11.295 17.5L10.529 19.181Z" fill="#383D45"/>
</svg>
