<svg width="32" height="32" viewBox="0 0 32 32" fill="none" xmlns="http://www.w3.org/2000/svg">
<path d="M15.9994 5.33325C13.7999 5.33587 11.6912 6.21971 10.1359 7.79087C8.58063 9.36204 7.70573 11.4922 7.70313 13.7142C7.70111 15.5299 8.28818 17.2962 9.37446 18.7428C9.37446 18.7428 9.60072 19.0437 9.63767 19.0872L15.9994 26.6666L22.3642 19.0833C22.3974 19.043 22.6244 18.7428 22.6244 18.7428L22.6251 18.7405C23.7107 17.2945 24.2975 15.529 24.2957 13.7142C24.2931 11.4922 23.4182 9.36204 21.8629 7.79087C20.3076 6.21971 18.1989 5.33587 15.9994 5.33325ZM15.9994 16.7618C15.4027 16.7618 14.8195 16.5831 14.3234 16.2482C13.8272 15.9133 13.4406 15.4374 13.2122 14.8805C12.9839 14.3236 12.9242 13.7108 13.0406 13.1196C13.157 12.5285 13.4443 11.9854 13.8662 11.5592C14.2881 11.133 14.8257 10.8427 15.4109 10.7251C15.9961 10.6076 16.6027 10.6679 17.1539 10.8986C17.7052 11.1292 18.1763 11.5199 18.5078 12.021C18.8393 12.5222 19.0163 13.1114 19.0163 13.7142C19.0153 14.5222 18.6971 15.2968 18.1315 15.8681C17.566 16.4394 16.7992 16.7608 15.9994 16.7618Z" fill="#383D45"/>
</svg>
