<svg width="24" height="24" viewBox="0 0 24 24" fill="none" xmlns="http://www.w3.org/2000/svg">
<g clip-path="url(#clip0_385_4939)">
<path fill-rule="evenodd" clip-rule="evenodd" d="M13.3986 4.50517C13.7038 4.19997 14.1123 4.02029 14.5435 4.00162C14.9747 3.98294 15.3972 4.12662 15.7276 4.40428L15.8371 4.50517L19.4957 8.16373C19.8006 8.46885 19.9801 8.87718 19.9988 9.30816C20.0175 9.73914 19.874 10.1615 19.5965 10.4918L19.4957 10.6022L10.6023 19.4955C10.316 19.7818 9.93814 19.9583 9.53484 19.9939L9.38308 20H4.87088C4.65633 20 4.44933 19.9208 4.28957 19.7776C4.12981 19.6343 4.02854 19.4372 4.00517 19.2239L4 19.1291V14.6169C4.0001 14.212 4.14265 13.8201 4.40267 13.5097L4.50615 13.3976L13.3986 4.50517ZM11.9104 8.43189L5.72452 14.6177V18.2754H9.38394L15.5698 12.0896L11.9112 8.43103L11.9104 8.43189ZM14.6179 5.7244L13.1296 7.21266L16.7882 10.8712L18.2764 9.38297L14.6179 5.7244Z" fill="#9EA3AB"/>
</g>
<defs>
<clipPath id="clip0_385_4939">
<rect width="24" height="24" fill="white"/>
</clipPath>
</defs>
</svg>
