<svg width="24" height="25" viewBox="0 0 24 25" fill="none" xmlns="http://www.w3.org/2000/svg">
<path d="M7.90831 4.96729L9.20004 4.57784C9.62636 4.44951 10.0848 4.48064 10.4898 4.66544C10.8949 4.85023 11.2189 5.17606 11.4014 5.58215L12.307 7.59611C12.4642 7.9455 12.508 8.33534 12.4323 8.71091C12.3566 9.08647 12.1651 9.42889 11.8849 9.69009L10.5064 10.9745C10.3217 11.1499 10.4618 11.8334 11.1366 13.0031C11.8122 14.1735 12.3343 14.6363 12.5751 14.5643L14.381 14.0121C14.747 13.9001 15.139 13.9055 15.5018 14.0275C15.8646 14.1495 16.1802 14.382 16.4043 14.6923L17.6913 16.4762C17.9513 16.8364 18.0717 17.2788 18.0301 17.7211C17.9885 18.1633 17.7878 18.5755 17.4653 18.881L16.4703 19.8232C16.1491 20.1274 15.753 20.341 15.3223 20.4421C14.8916 20.5432 14.4419 20.5282 14.0189 20.3988C11.9342 19.7606 10.0036 17.8666 8.20106 14.7437C6.3945 11.616 5.71229 8.97787 6.18777 6.82254C6.28367 6.38824 6.49366 5.98737 6.79609 5.66126C7.09852 5.33515 7.48245 5.09559 7.90831 4.96729Z" fill="#383D45"/>
</svg>
