<svg width="54" height="54" viewBox="0 0 54 54" fill="none" xmlns="http://www.w3.org/2000/svg">
<path d="M33.75 27C33.75 28.7902 33.0388 30.5071 31.773 31.773C30.5071 33.0388 28.7902 33.75 27 33.75C25.2098 33.75 23.4929 33.0388 22.227 31.773C20.9612 30.5071 20.25 28.7902 20.25 27C20.25 25.2098 20.9612 23.4929 22.227 22.227C23.4929 20.9612 25.2098 20.25 27 20.25C28.7902 20.25 30.5071 20.9612 31.773 22.227C33.0388 23.4929 33.75 25.2098 33.75 27ZM17.8065 9.55125C18.2267 8.70964 18.873 8.00173 19.673 7.50694C20.473 7.01214 21.3951 6.75003 22.3358 6.75H31.6642C32.6049 6.75003 33.527 7.01214 34.327 7.50694C35.127 8.00173 35.7733 8.70964 36.1935 9.55125L38.1679 13.5H40.5C42.2902 13.5 44.0071 14.2112 45.273 15.477C46.5388 16.7429 47.25 18.4598 47.25 20.25V37.125C47.25 38.9152 46.5388 40.6321 45.273 41.898C44.0071 43.1638 42.2902 43.875 40.5 43.875H13.5C11.7098 43.875 9.9929 43.1638 8.72703 41.898C7.46116 40.6321 6.75 38.9152 6.75 37.125V20.25C6.75 18.4598 7.46116 16.7429 8.72703 15.477C9.9929 14.2112 11.7098 13.5 13.5 13.5H15.8321L17.8065 9.55125ZM37.125 27C37.125 24.3147 36.0583 21.7394 34.1595 19.8405C32.2607 17.9417 29.6853 16.875 27 16.875C24.3147 16.875 21.7394 17.9417 19.8405 19.8405C17.9417 21.7394 16.875 24.3147 16.875 27C16.875 29.6853 17.9417 32.2607 19.8405 34.1595C21.7394 36.0583 24.3147 37.125 27 37.125C29.6853 37.125 32.2607 36.0583 34.1595 34.1595C36.0583 32.2607 37.125 29.6853 37.125 27Z" fill="white"/>
</svg>
