<svg width="20" height="24" viewBox="0 0 20 24" fill="none" xmlns="http://www.w3.org/2000/svg">
<rect width="20" height="24" rx="2" fill="#9EA3AB"/>
<path fill-rule="evenodd" clip-rule="evenodd" d="M4 5.75C4 5.33579 4.33579 5 4.75 5H14.75C15.1642 5 15.5 5.33579 15.5 5.75C15.5 6.16421 15.1642 6.5 14.75 6.5H4.75C4.33579 6.5 4 6.16421 4 5.75Z" fill="white"/>
<path fill-rule="evenodd" clip-rule="evenodd" d="M4 9.75C4 9.33579 4.33579 9 4.75 9H14.75C15.1642 9 15.5 9.33579 15.5 9.75C15.5 10.1642 15.1642 10.5 14.75 10.5H4.75C4.33579 10.5 4 10.1642 4 9.75Z" fill="white"/>
<path fill-rule="evenodd" clip-rule="evenodd" d="M4 13.75C4 13.3358 4.33579 13 4.75 13H14.75C15.1642 13 15.5 13.3358 15.5 13.75C15.5 14.1642 15.1642 14.5 14.75 14.5H4.75C4.33579 14.5 4 14.1642 4 13.75Z" fill="white"/>
</svg>
