<svg width="35" height="47" viewBox="0 0 35 47" fill="none" xmlns="http://www.w3.org/2000/svg">
<path d="M17.5 1C8.43046 1 1 8.26213 1 17.1262C1 21.2913 2.63907 24.4951 4.71523 27.699L17.5 45L30.2848 27.699C32.5795 24.7087 34 21.0777 34 17.1262C34 8.26213 26.5695 1 17.5 1Z" fill="#FF7A00" stroke="#CC6200" stroke-width="1.5"/>
<g clip-path="url(#clip0_1381_19386)">
<path d="M16.869 9.79921L8.93873 18.2104C8.70122 18.4398 8.64844 18.5799 8.64844 18.8348V19.1662C8.64844 19.3573 8.79358 19.472 8.96512 19.472H11.1555V25.1687C11.1555 25.4363 11.2347 25.5637 11.4986 25.5765H15.2724C15.4703 25.5765 15.6286 25.449 15.6286 25.1814V22.4032C15.6286 22.2248 15.787 22.0718 15.9717 22.0718H18.769C18.9538 22.0718 19.1121 22.2248 19.1121 22.4032V25.1814C19.1121 25.4363 19.1913 25.5765 19.4288 25.5765H23.163C23.4401 25.5765 23.5852 25.449 23.5984 25.1814V19.472H25.7888C25.9735 19.472 26.1055 19.3446 26.1055 19.1662V18.8348C26.1055 18.5672 26.0131 18.4143 25.7624 18.1594L17.9114 9.79921C17.5683 9.46786 17.2252 9.45512 16.869 9.79921Z" fill="white"/>
</g>
<defs>
<clipPath id="clip0_1381_19386">
<rect width="17.4834" height="16.0194" fill="white" transform="translate(8.64844 9.54468)"/>
</clipPath>
</defs>
</svg>
