<svg width="24" height="25" viewBox="0 0 24 25" fill="none" xmlns="http://www.w3.org/2000/svg">
<path d="M4 11.4982C4.0004 9.74425 4.57719 8.03906 5.64159 6.64504C6.70599 5.25103 8.19901 4.24544 9.89088 3.78303C11.5827 3.32063 13.3797 3.42704 15.0052 4.0859C16.6306 4.74475 17.9945 5.91952 18.887 7.42942C19.7794 8.93932 20.1509 10.7007 19.9443 12.4424C19.7377 14.1841 18.9644 15.8096 17.7435 17.0688C16.5226 18.328 14.9217 19.1511 13.1872 19.4114C11.4527 19.6717 9.68073 19.3548 8.144 18.5094L5.0336 19.4566C4.89487 19.4988 4.74725 19.5026 4.60655 19.4674C4.46585 19.4323 4.33735 19.3595 4.2348 19.257C4.13225 19.1544 4.0595 19.0259 4.02434 18.8852C3.98919 18.7445 3.99294 18.5969 4.0352 18.4582L4.9824 15.343C4.33722 14.1642 3.99936 12.8419 4 11.4982ZM8.8 10.6982C8.8 10.9103 8.88428 11.1138 9.03431 11.2639C9.18434 11.4139 9.38782 11.4982 9.6 11.4982H14.4C14.6122 11.4982 14.8156 11.4139 14.9657 11.2639C15.1157 11.1138 15.2 10.9103 15.2 10.6982C15.2 10.486 15.1157 10.2825 14.9657 10.1325C14.8156 9.98245 14.6122 9.89817 14.4 9.89817H9.6C9.38782 9.89817 9.18434 9.98245 9.03431 10.1325C8.88428 10.2825 8.8 10.486 8.8 10.6982ZM9.6 13.0982C9.38782 13.0982 9.18434 13.1825 9.03431 13.3325C8.88428 13.4825 8.8 13.686 8.8 13.8982C8.8 14.1103 8.88428 14.3138 9.03431 14.4638C9.18434 14.6139 9.38782 14.6982 9.6 14.6982H12.8C13.0122 14.6982 13.2156 14.6139 13.3657 14.4638C13.5157 14.3138 13.6 14.1103 13.6 13.8982C13.6 13.686 13.5157 13.4825 13.3657 13.3325C13.2156 13.1825 13.0122 13.0982 12.8 13.0982H9.6Z" fill="#383D45"/>
</svg>
