<svg width="38" height="38" viewBox="0 0 38 38" fill="none" xmlns="http://www.w3.org/2000/svg">
<path d="M0 7.125C0 4.50508 2.13008 2.375 4.75 2.375H33.25C35.8699 2.375 38 4.50508 38 7.125V30.875C38 33.4949 35.8699 35.625 33.25 35.625H4.75C2.13008 35.625 0 33.4949 0 30.875V7.125ZM24.032 15.0293C23.698 14.5395 23.1488 14.25 22.5625 14.25C21.9762 14.25 21.4195 14.5395 21.093 15.0293L14.6359 24.4996L12.6691 22.043C12.3277 21.6199 11.8156 21.375 11.2812 21.375C10.7469 21.375 10.2273 21.6199 9.89336 22.043L5.14336 27.9805C4.71289 28.5148 4.63125 29.2496 4.92812 29.8656C5.225 30.4816 5.84844 30.875 6.53125 30.875H31.4688C32.1293 30.875 32.7379 30.5113 33.0422 29.925C33.3465 29.3387 33.3094 28.6336 32.9383 28.0918L24.032 15.0293ZM8.3125 14.25C9.25733 14.25 10.1635 13.8747 10.8316 13.2066C11.4997 12.5385 11.875 11.6323 11.875 10.6875C11.875 9.74267 11.4997 8.83653 10.8316 8.16843C10.1635 7.50033 9.25733 7.125 8.3125 7.125C7.36767 7.125 6.46153 7.50033 5.79343 8.16843C5.12533 8.83653 4.75 9.74267 4.75 10.6875C4.75 11.6323 5.12533 12.5385 5.79343 13.2066C6.46153 13.8747 7.36767 14.25 8.3125 14.25Z" fill="#DFE0E3"/>
</svg>
