<svg width="24" height="26" viewBox="0 0 24 26" fill="none" xmlns="http://www.w3.org/2000/svg">
<path d="M12.0046 9.46009C11.1578 9.46009 10.3649 9.79718 9.76449 10.4132C9.16694 11.0293 8.8356 11.8429 8.8356 12.7118C8.8356 13.5806 9.16694 14.3943 9.76449 15.0103C10.3649 15.6235 11.1578 15.9635 12.0046 15.9635C12.8514 15.9635 13.6443 15.6235 14.2447 15.0103C14.8423 14.3943 15.1736 13.5806 15.1736 12.7118C15.1736 11.8429 14.8423 11.0293 14.2447 10.4132C13.9515 10.11 13.6024 9.86962 13.2179 9.70599C12.8333 9.54237 12.4209 9.45879 12.0046 9.46009ZM23.681 16.3034L21.8288 14.6791C21.9166 14.1269 21.9619 13.5632 21.9619 13.0024C21.9619 12.4415 21.9166 11.8749 21.8288 11.3257L23.681 9.70128C23.8209 9.57838 23.921 9.41469 23.968 9.23198C24.0151 9.04926 24.0068 8.85618 23.9443 8.67841L23.9188 8.60286C23.4091 7.1403 22.6454 5.78461 21.6646 4.60146L21.6136 4.54044C21.4945 4.39675 21.3358 4.29346 21.1583 4.24418C20.9809 4.1949 20.793 4.20194 20.6196 4.26438L18.32 5.10418C17.4704 4.38933 16.5245 3.82559 15.4993 3.4333L15.0547 0.966205C15.0211 0.780352 14.9333 0.60937 14.8028 0.475977C14.6722 0.342583 14.5053 0.253093 14.324 0.219394L14.2476 0.204865C12.7749 -0.0682882 11.223 -0.0682882 9.75033 0.204865L9.67387 0.219394C9.49261 0.253093 9.32563 0.342583 9.19513 0.475977C9.06462 0.60937 8.97676 0.780352 8.94321 0.966205L8.49576 3.44492C7.48027 3.84032 6.53428 4.4027 5.6949 5.10999L3.37833 4.26438C3.20491 4.20144 3.01694 4.19415 2.83938 4.24346C2.66183 4.29277 2.5031 4.39635 2.38429 4.54044L2.33332 4.60146C1.35426 5.78586 0.590689 7.14122 0.0790443 8.60286L0.0535562 8.67841C-0.0738839 9.04165 0.0309003 9.44847 0.316933 9.70128L2.19172 11.3431C2.10393 11.8894 2.06145 12.4473 2.06145 12.9995C2.06145 13.5574 2.10393 14.1153 2.19172 14.6558L0.322596 16.2976C0.182683 16.4205 0.0825458 16.5842 0.0354993 16.7669C-0.0115473 16.9496 -0.00327369 17.1427 0.0592201 17.3205L0.0847082 17.3961C0.597301 18.8577 1.35345 20.2089 2.33898 21.3975L2.38996 21.4585C2.50906 21.6022 2.66779 21.7055 2.84524 21.7547C3.02269 21.804 3.21052 21.797 3.38399 21.7345L5.70057 20.8889C6.54451 21.6009 7.48473 22.1646 8.50142 22.554L8.94888 25.0327C8.98242 25.2186 9.07028 25.3895 9.20079 25.5229C9.3313 25.6563 9.49827 25.7458 9.67953 25.7795L9.756 25.794C11.2431 26.0686 12.7661 26.0686 14.2532 25.794L14.3297 25.7795C14.5109 25.7458 14.6779 25.6563 14.8084 25.5229C14.9389 25.3895 15.0268 25.2186 15.0603 25.0327L15.505 22.5656C16.5301 22.1704 17.476 21.6096 18.3256 20.8947L20.6252 21.7345C20.7986 21.7975 20.9866 21.8048 21.1642 21.7555C21.3417 21.7061 21.5004 21.6026 21.6193 21.4585L21.6702 21.3975C22.6558 20.2031 23.4119 18.8577 23.9245 17.3961L23.95 17.3205C24.0718 16.9602 23.967 16.5563 23.681 16.3034ZM12.0046 17.8203C9.25473 17.8203 7.02595 15.5334 7.02595 12.7118C7.02595 9.89016 9.25473 7.60324 12.0046 7.60324C14.7545 7.60324 16.9833 9.89016 16.9833 12.7118C16.9833 15.5334 14.7545 17.8203 12.0046 17.8203Z" fill="#383D45"/>
</svg>
