<svg width="27" height="25" viewBox="0 0 27 25" fill="none" xmlns="http://www.w3.org/2000/svg">
<path d="M12.9786 1.12219L0.940185 13.805C0.579634 14.1509 0.499512 14.3623 0.499512 14.7466V15.2462C0.499512 15.5345 0.719849 15.7074 0.980247 15.7074H4.30533V24.2972C4.30533 24.7007 4.42551 24.8929 4.82613 24.9121H10.5549C10.8553 24.9121 11.0957 24.7199 11.0957 24.3164V20.1272C11.0957 19.8582 11.3361 19.6276 11.6165 19.6276H15.863C16.1434 19.6276 16.3838 19.8582 16.3838 20.1272V24.3164C16.3838 24.7007 16.504 24.9121 16.8645 24.9121H22.5332C22.9538 24.9121 23.1742 24.7199 23.1942 24.3164V15.7074H26.5193C26.7997 15.7074 27 15.5153 27 15.2462V14.7466C27 14.3431 26.8598 14.1125 26.4792 13.7281L14.561 1.12219C14.0402 0.622568 13.5194 0.603352 12.9786 1.12219Z" fill="#9EA3AB"/>
</svg>
