<svg width="24" height="25" viewBox="0 0 24 25" fill="none" xmlns="http://www.w3.org/2000/svg">
<path fill-rule="evenodd" clip-rule="evenodd" d="M17 5.5V4.5C17 3.96957 16.7893 3.46086 16.4142 3.08579C16.0391 2.71071 15.5304 2.5 15 2.5H9C8.46957 2.5 7.96086 2.71071 7.58579 3.08579C7.21071 3.46086 7 3.96957 7 4.5V5.5H4C3.73478 5.5 3.48043 5.60536 3.29289 5.79289C3.10536 5.98043 3 6.23478 3 6.5C3 6.76522 3.10536 7.01957 3.29289 7.20711C3.48043 7.39464 3.73478 7.5 4 7.5H5V18.5C5 19.2956 5.31607 20.0587 5.87868 20.6213C6.44129 21.1839 7.20435 21.5 8 21.5H16C16.7956 21.5 17.5587 21.1839 18.1213 20.6213C18.6839 20.0587 19 19.2956 19 18.5V7.5H20C20.2652 7.5 20.5196 7.39464 20.7071 7.20711C20.8946 7.01957 21 6.76522 21 6.5C21 6.23478 20.8946 5.98043 20.7071 5.79289C20.5196 5.60536 20.2652 5.5 20 5.5H17ZM15 4.5H9V5.5H15V4.5ZM17 7.5H7V18.5C7 18.7652 7.10536 19.0196 7.29289 19.2071C7.48043 19.3946 7.73478 19.5 8 19.5H16C16.2652 19.5 16.5196 19.3946 16.7071 19.2071C16.8946 19.0196 17 18.7652 17 18.5V7.5Z" fill="#FD4F43"/>
<path d="M9 9.5H11V17.5H9V9.5ZM13 9.5H15V17.5H13V9.5Z" fill="#FD4F43"/>
</svg>
