<svg width="49" height="48" viewBox="0 0 49 48" fill="none" xmlns="http://www.w3.org/2000/svg">
<rect x="0.5" width="48" height="48" rx="24" fill="#FFAF66"/>
<path fill-rule="evenodd" clip-rule="evenodd" d="M17.8546 25.6576V31.2152C17.8546 32.5836 16.6673 33.6739 15.0721 33.6739C13.5336 33.6739 12.5 32.6147 12.5 31.2226V18.6638C12.5 17.2405 12.6573 16.463 13.6635 15.7459C14.8361 14.9117 17.1412 14.8166 18.3486 16.785L26.6814 29.1974C27.6089 30.564 27.362 32 26.2277 32.9605C24.9325 34.0032 22.9879 33.6758 22.139 32.2379L17.8565 25.6594L17.8546 25.6576Z" fill="white"/>
<path fill-rule="evenodd" clip-rule="evenodd" d="M26.8612 32.2362C25.9831 33.6521 24.1281 34.0198 22.756 32.9643C21.609 31.9599 21.4004 30.3775 22.1944 29.1957L30.3352 16.5876C30.9023 15.6381 31.6468 15.1826 32.7829 15.0289C33.7031 14.9045 34.7879 15.1826 35.4831 15.8339C36.4856 16.7742 36.5002 17.9047 36.5002 19.3518V31.252C36.5002 32.6441 35.1721 33.7363 33.7506 33.7052C32.2194 33.6704 30.9974 32.699 30.9974 31.3306L31.0102 26.0254L26.863 32.2325L26.8612 32.2362Z" fill="#FFCA99" fill-opacity="0.8"/>
<path fill-rule="evenodd" clip-rule="evenodd" d="M26.6812 29.1949L24.3945 25.7886L22.1937 29.1949C21.5516 30.1517 21.5663 31.3719 22.2029 32.3341C22.2066 32.3414 22.212 32.3469 22.2157 32.3543C22.3108 32.4951 22.4206 32.6305 22.5413 32.7604C22.6584 32.8793 22.7846 32.9854 22.9182 33.0787C22.9365 33.0915 22.9529 33.1043 22.9712 33.1153C23.0115 33.1427 23.0554 33.1665 23.0975 33.1903C23.1505 33.2214 23.2036 33.2507 23.2566 33.2781C23.2859 33.2927 23.3152 33.3055 23.3444 33.3183C23.4048 33.3458 23.4633 33.3714 23.5237 33.3933C23.5621 33.408 23.6024 33.4208 23.6408 33.4336C23.6884 33.4482 23.7359 33.4629 23.7835 33.4757C23.842 33.4903 23.9006 33.5049 23.9591 33.5159C23.9865 33.5214 24.0158 33.5269 24.0433 33.5324C24.1201 33.5452 24.1969 33.5543 24.2756 33.5598C24.2866 33.5598 24.2975 33.5616 24.3085 33.5616C24.3982 33.5671 24.4896 33.569 24.5793 33.5671C24.5811 33.5671 24.5829 33.5671 24.5848 33.5671C24.6799 33.5635 24.7732 33.5562 24.8683 33.5434C24.8683 33.5434 24.8701 33.5434 24.872 33.5434C24.9634 33.5305 25.0549 33.5123 25.1446 33.4903C25.15 33.4903 25.1574 33.4866 25.1628 33.4866C25.2452 33.4665 25.3275 33.4409 25.408 33.4116C25.4226 33.4062 25.4373 33.4025 25.4519 33.397C25.5232 33.3714 25.5928 33.3403 25.6623 33.3074C25.6861 33.2964 25.7098 33.2854 25.7318 33.2744C25.7903 33.2452 25.8489 33.2104 25.9056 33.1756C25.9367 33.1574 25.9659 33.1409 25.997 33.1208C26.0446 33.0897 26.0903 33.0549 26.1379 33.0201C26.1727 32.9927 26.2093 32.9671 26.244 32.9397C26.3702 32.8299 26.4855 32.7165 26.5898 32.5957C26.5971 32.5866 26.6062 32.5774 26.6136 32.5683C26.6556 32.5171 26.6959 32.4658 26.7343 32.4128C26.7581 32.3799 26.78 32.3488 26.802 32.314C27.4057 31.4139 27.413 30.2852 26.6758 29.1967L26.6812 29.1949Z" fill="#FFE4CC"/>
</svg>
