<svg width="33" height="32" viewBox="0 0 33 32" fill="none" xmlns="http://www.w3.org/2000/svg">
<path d="M15.9786 3.12219L3.94019 15.805C3.57963 16.1509 3.49951 16.3623 3.49951 16.7466V17.2462C3.49951 17.5345 3.71985 17.7074 3.98025 17.7074H7.30533V26.2972C7.30533 26.7007 7.42551 26.8929 7.82613 26.9121H13.5549C13.8553 26.9121 14.0957 26.7199 14.0957 26.3164V22.1272C14.0957 21.8582 14.3361 21.6276 14.6165 21.6276H18.863C19.1434 21.6276 19.3838 21.8582 19.3838 22.1272V26.3164C19.3838 26.7007 19.504 26.9121 19.8645 26.9121H25.5332C25.9538 26.9121 26.1742 26.7199 26.1942 26.3164V17.7074H29.5193C29.7997 17.7074 30 17.5153 30 17.2462V16.7466C30 16.3431 29.8598 16.1125 29.4792 15.7281L17.561 3.12219C17.0402 2.62257 16.5194 2.60335 15.9786 3.12219Z" fill="#9EA3AB"/>
</svg>
