<svg width="133" height="132" viewBox="0 0 133 132" fill="none" xmlns="http://www.w3.org/2000/svg">
<path d="M65.4446 74.0436C84.9058 74.0436 100.682 58.1399 100.682 38.5218C100.682 18.9036 84.9058 3 65.4446 3C45.9834 3 30.207 18.9036 30.207 38.5218C30.207 58.1399 45.9834 74.0436 65.4446 74.0436Z" fill="#FF7A00"/>
<path d="M32.2731 52.4639C32.3227 53.0098 32.8189 53.4067 33.3647 53.3571C33.9106 53.3075 34.3075 52.8113 34.2579 52.2655L32.2731 52.5136V52.4639ZM40.8077 45.7156C38.426 44.8721 36.0938 45.2691 34.506 46.6088C32.8685 47.9485 32.025 50.0822 32.3227 52.4639L34.3075 52.2158C34.109 50.4295 34.7541 48.9409 35.7961 48.0974C36.8381 47.2539 38.3763 46.9065 40.2123 47.5516L40.8573 45.666L40.8077 45.7156Z" fill="#DFE0E3"/>
<path d="M86.9059 52.4639C86.9555 53.0098 87.4517 53.4067 87.9975 53.3571C88.5434 53.3075 88.9403 52.8113 88.8907 52.2655L86.9059 52.5136V52.4639ZM95.4405 45.7156C93.0588 44.8721 90.7266 45.2691 89.1388 46.6088C87.5014 47.9485 86.6578 50.0822 86.9555 52.4639L88.9403 52.2158C88.7418 50.4295 89.3869 48.9409 90.4289 48.0974C91.4709 47.2539 93.0092 46.9065 94.8451 47.5516L95.4901 45.666L95.4405 45.7156Z" fill="#DFE0E3"/>
<path d="M73.209 128.085V84.5186C90.3278 84.5186 109.283 112.653 109.283 128.085H73.209Z" fill="#FFCA99"/>
<path d="M22.25 128.085C22.25 112.653 41.2048 84.5186 58.3236 84.5186V128.085H22.25Z" fill="#FFCA99"/>
<path d="M30.5352 128.085C30.5352 128.085 35.6956 80.9458 65.5171 80.9458C95.3387 80.9458 100.499 128.085 100.499 128.085H30.5352Z" fill="#FF7A00"/>
<path d="M37.9784 59.7078C42.7741 59.7078 46.6619 55.82 46.6619 51.0243C46.6619 46.2285 42.7741 42.3408 37.9784 42.3408C33.1826 42.3408 29.2949 46.2285 29.2949 51.0243C29.2949 55.82 33.1826 59.7078 37.9784 59.7078Z" fill="#F1F2F4"/>
<path d="M73.2063 64.6709H58.3203V89.2823H73.2063V64.6709Z" fill="#F1F2F4"/>
<path d="M58.3203 55.3154H73.2063V73.1786L58.3203 78.8849V55.3154Z" fill="#DFE0E3"/>
<path d="M93.3046 59.7078C98.1003 59.7078 101.988 55.82 101.988 51.0243C101.988 46.2285 98.1003 42.3408 93.3046 42.3408C88.5088 42.3408 84.6211 46.2285 84.6211 51.0243C84.6211 55.82 88.5088 59.7078 93.3046 59.7078Z" fill="#F1F2F4"/>
<path d="M31.6821 52.0557C31.6186 52.6803 32.0734 53.2381 32.6979 53.3016C33.3225 53.3652 33.8803 52.9104 33.9438 52.2858L31.6821 52.0557ZM41.0968 46.084C39.2133 45.2715 37.0188 45.1874 35.1733 46.1644C33.2878 47.1626 31.9773 49.1543 31.6821 52.0557L33.9438 52.2858C34.1784 49.9805 35.1536 48.7471 36.2369 48.1736C37.3603 47.579 38.8177 47.5768 40.1963 48.1714L41.0968 46.084Z" fill="#DFE0E3"/>
<path d="M99.3257 52.0557C99.3892 52.6803 98.9344 53.2381 98.3099 53.3016C97.6853 53.3652 97.1275 52.9104 97.064 52.2858L99.3257 52.0557ZM89.9111 46.084C91.7946 45.2715 93.989 45.1874 95.8345 46.1644C97.72 47.1626 99.0305 49.1543 99.3257 52.0557L97.064 52.2858C96.8294 49.9805 95.8542 48.7471 94.7709 48.1736C93.6475 47.579 92.1901 47.5768 90.8115 48.1714L89.9111 46.084Z" fill="#DFE0E3"/>
<path d="M65.4196 70.6746C80.8208 70.6746 93.3059 58.1894 93.3059 42.7882C93.3059 27.387 80.8208 14.9019 65.4196 14.9019C50.0183 14.9019 37.5332 27.387 37.5332 42.7882C37.5332 58.1894 50.0183 70.6746 65.4196 70.6746Z" fill="white"/>
<path d="M98.3205 36.983C91.0264 38.4716 75.942 36.983 73.2129 24.3299C71.7243 36.6852 52.1741 44.4756 32.5742 39.2159C32.5742 13.9594 48.1548 4.4209 65.1248 4.4209C82.0948 4.4209 97.08 17.8297 98.3701 36.983H98.3205Z" fill="#FF7A00"/>
<path d="M55.9664 49.6091C57.6986 49.6091 59.1028 48.2049 59.1028 46.4728C59.1028 44.7406 57.6986 43.3364 55.9664 43.3364C54.2343 43.3364 52.8301 44.7406 52.8301 46.4728C52.8301 48.2049 54.2343 49.6091 55.9664 49.6091Z" fill="#383D45"/>
<path d="M74.7848 49.6091C76.517 49.6091 77.9212 48.2049 77.9212 46.4728C77.9212 44.7406 76.517 43.3364 74.7848 43.3364C73.0526 43.3364 71.6484 44.7406 71.6484 46.4728C71.6484 48.2049 73.0526 49.6091 74.7848 49.6091Z" fill="#383D45"/>
<path d="M59.6621 59.0181C59.8606 59.9112 61.6469 61.9953 65.3684 61.9953C69.0899 61.9953 70.6281 60.0601 71.0747 59.0181" stroke="#BFC1C7" stroke-width="2.84174" stroke-linecap="round" stroke-linejoin="round"/>
<path d="M52.5668 107.145C51.4256 107.145 50.5324 106.004 50.582 104.416C50.582 104.416 50.5324 100.05 54.9486 90.9691C55.3952 90.0263 55.8417 89.2324 56.6853 89.2324H74.8462C75.6897 89.2324 76.1363 90.0263 76.5828 90.9691C80.999 100.05 80.9494 104.416 80.9494 104.416C80.9494 106.004 80.1059 107.145 78.9646 107.145H52.6165H52.5668Z" fill="#FFCA99"/>
<path d="M65.7676 89.2326L74.6992 98.8092C75.245 99.355 75.8404 99.1069 75.9893 98.5115L79.1153 84.221C79.1649 83.9233 79.1153 83.7248 78.8672 83.4271L73.806 79.6063C73.5083 79.4079 73.2106 79.4079 73.0121 79.7056L65.7676 89.183V89.2326Z" fill="#FFAF66"/>
<path d="M65.7654 89.2321L58.5209 79.7547C58.3224 79.5066 58.0247 79.457 57.727 79.6554L52.6658 83.4762C52.4177 83.7243 52.3681 83.9227 52.4177 84.2701L55.5437 98.5606C55.6926 99.156 56.288 99.4041 56.8338 98.8583L65.7654 89.2817V89.2321Z" fill="#FFAF66"/>
</svg>
