<svg width="33" height="32" viewBox="0 0 33 32" fill="none" xmlns="http://www.w3.org/2000/svg">
<rect x="7" y="4" width="20" height="24" rx="2" fill="#9EA3AB"/>
<path fill-rule="evenodd" clip-rule="evenodd" d="M11 9.75C11 9.33579 11.3358 9 11.75 9H21.75C22.1642 9 22.5 9.33579 22.5 9.75C22.5 10.1642 22.1642 10.5 21.75 10.5H11.75C11.3358 10.5 11 10.1642 11 9.75Z" fill="white"/>
<path fill-rule="evenodd" clip-rule="evenodd" d="M11 13.75C11 13.3358 11.3358 13 11.75 13H21.75C22.1642 13 22.5 13.3358 22.5 13.75C22.5 14.1642 22.1642 14.5 21.75 14.5H11.75C11.3358 14.5 11 14.1642 11 13.75Z" fill="white"/>
<path fill-rule="evenodd" clip-rule="evenodd" d="M11 17.75C11 17.3358 11.3358 17 11.75 17H21.75C22.1642 17 22.5 17.3358 22.5 17.75C22.5 18.1642 22.1642 18.5 21.75 18.5H11.75C11.3358 18.5 11 18.1642 11 17.75Z" fill="white"/>
</svg>
