<svg width="33" height="32" viewBox="0 0 33 32" fill="none" xmlns="http://www.w3.org/2000/svg">
<path d="M17.0046 12.4601C16.1578 12.4601 15.3649 12.7972 14.7645 13.4132C14.1669 14.0293 13.8356 14.8429 13.8356 15.7118C13.8356 16.5806 14.1669 17.3943 14.7645 18.0103C15.3649 18.6235 16.1578 18.9635 17.0046 18.9635C17.8514 18.9635 18.6443 18.6235 19.2447 18.0103C19.8423 17.3943 20.1736 16.5806 20.1736 15.7118C20.1736 14.8429 19.8423 14.0293 19.2447 13.4132C18.9515 13.11 18.6024 12.8696 18.2179 12.706C17.8333 12.5424 17.4209 12.4588 17.0046 12.4601ZM28.681 19.3034L26.8288 17.6791C26.9166 17.1269 26.9619 16.5632 26.9619 16.0024C26.9619 15.4415 26.9166 14.8749 26.8288 14.3257L28.681 12.7013C28.8209 12.5784 28.921 12.4147 28.968 12.232C29.0151 12.0493 29.0068 11.8562 28.9443 11.6784L28.9188 11.6029C28.4091 10.1403 27.6454 8.78461 26.6646 7.60146L26.6136 7.54044C26.4945 7.39675 26.3358 7.29346 26.1583 7.24418C25.9809 7.1949 25.793 7.20194 25.6196 7.26438L23.32 8.10418C22.4704 7.38933 21.5245 6.82559 20.4993 6.4333L20.0547 3.96621C20.0211 3.78035 19.9333 3.60937 19.8028 3.47598C19.6722 3.34258 19.5053 3.25309 19.324 3.21939L19.2476 3.20486C17.7749 2.93171 16.223 2.93171 14.7503 3.20486L14.6739 3.21939C14.4926 3.25309 14.3256 3.34258 14.1951 3.47598C14.0646 3.60937 13.9768 3.78035 13.9432 3.96621L13.4958 6.44492C12.4803 6.84032 11.5343 7.4027 10.6949 8.10999L8.37833 7.26438C8.20491 7.20144 8.01694 7.19415 7.83938 7.24346C7.66183 7.29277 7.5031 7.39635 7.38429 7.54044L7.33332 7.60146C6.35426 8.78586 5.59069 10.1412 5.07904 11.6029L5.05356 11.6784C4.92612 12.0416 5.0309 12.4485 5.31693 12.7013L7.19172 14.3431C7.10393 14.8894 7.06145 15.4473 7.06145 15.9995C7.06145 16.5574 7.10393 17.1153 7.19172 17.6558L5.3226 19.2976C5.18268 19.4205 5.08255 19.5842 5.0355 19.7669C4.98845 19.9496 4.99673 20.1427 5.05922 20.3205L5.08471 20.3961C5.5973 21.8577 6.35345 23.2089 7.33898 24.3975L7.38996 24.4585C7.50906 24.6022 7.66779 24.7055 7.84524 24.7547C8.02269 24.804 8.21052 24.797 8.38399 24.7345L10.7006 23.8889C11.5445 24.6009 12.4847 25.1646 13.5014 25.554L13.9489 28.0327C13.9824 28.2186 14.0703 28.3895 14.2008 28.5229C14.3313 28.6563 14.4983 28.7458 14.6795 28.7795L14.756 28.794C16.2431 29.0686 17.7661 29.0686 19.2532 28.794L19.3297 28.7795C19.5109 28.7458 19.6779 28.6563 19.8084 28.5229C19.9389 28.3895 20.0268 28.2186 20.0603 28.0327L20.505 25.5656C21.5301 25.1704 22.476 24.6096 23.3256 23.8947L25.6252 24.7345C25.7986 24.7975 25.9866 24.8048 26.1642 24.7555C26.3417 24.7061 26.5004 24.6026 26.6193 24.4585L26.6702 24.3975C27.6558 23.2031 28.4119 21.8577 28.9245 20.3961L28.95 20.3205C29.0718 19.9602 28.967 19.5563 28.681 19.3034ZM17.0046 20.8203C14.2547 20.8203 12.0259 18.5334 12.0259 15.7118C12.0259 12.8902 14.2547 10.6032 17.0046 10.6032C19.7545 10.6032 21.9833 12.8902 21.9833 15.7118C21.9833 18.5334 19.7545 20.8203 17.0046 20.8203Z" fill="#9EA3AB"/>
</svg>
