<svg width="133" height="132" viewBox="0 0 133 132" fill="none" xmlns="http://www.w3.org/2000/svg">
<path d="M11.1309 54.235C11.1309 51.9784 12.9259 50.1321 15.08 50.1321H120.782C122.218 50.1321 123.449 51.363 123.449 52.9016V116.036H11.1309V54.2863V54.235Z" fill="#F1F2F4"/>
<path d="M39.8535 39.5667L67.0356 14.436L94.7819 39.5667V115.984H39.9048V39.5667H39.8535Z" fill="white"/>
<path d="M53.8027 83.5198C53.8027 81.8274 55.1362 80.4426 56.7774 80.4426H77.7025C79.3437 80.4426 80.6771 81.8274 80.6771 83.5198V118.703H53.8027V83.5198Z" fill="#FFAF66"/>
<path d="M37.084 38.4385L67.292 11L97.5001 38.4385" stroke="#FF7A00" stroke-width="7.45993" stroke-linecap="round" stroke-linejoin="round"/>
<path d="M113.859 58.2869H103.602C102.837 58.2869 102.217 58.9068 102.217 59.6716V69.929C102.217 70.6938 102.837 71.3138 103.602 71.3138H113.859C114.624 71.3138 115.244 70.6938 115.244 69.929V59.6716C115.244 58.9068 114.624 58.2869 113.859 58.2869Z" fill="#DFE0E3"/>
<path d="M63.5484 56.0815H53.291C52.5262 56.0815 51.9062 56.7015 51.9062 57.4663V67.7237C51.9062 68.4885 52.5262 69.1084 53.291 69.1084H63.5484C64.3132 69.1084 64.9331 68.4885 64.9331 67.7237V57.4663C64.9331 56.7015 64.3132 56.0815 63.5484 56.0815Z" fill="#DFE0E3"/>
<path d="M63.5484 38.4385H53.291C52.5262 38.4385 51.9062 39.0585 51.9062 39.8232V50.0806C51.9062 50.8454 52.5262 51.4654 53.291 51.4654H63.5484C64.3132 51.4654 64.9331 50.8454 64.9331 50.0806V39.8232C64.9331 39.0585 64.3132 38.4385 63.5484 38.4385Z" fill="#DFE0E3"/>
<path d="M81.1402 56.0815H70.8828C70.118 56.0815 69.498 56.7015 69.498 57.4663V67.7237C69.498 68.4885 70.118 69.1084 70.8828 69.1084H81.1402C81.905 69.1084 82.5249 68.4885 82.5249 67.7237V57.4663C82.5249 56.7015 81.905 56.0815 81.1402 56.0815Z" fill="#DFE0E3"/>
<path d="M81.1402 38.4385H70.8828C70.118 38.4385 69.498 39.0585 69.498 39.8232V50.0806C69.498 50.8454 70.118 51.4654 70.8828 51.4654H81.1402C81.905 51.4654 82.5249 50.8454 82.5249 50.0806V39.8232C82.5249 39.0585 81.905 38.4385 81.1402 38.4385Z" fill="#DFE0E3"/>
<path d="M30.2625 58.2869H20.6719C19.9071 58.2869 19.2871 58.9068 19.2871 59.6716V69.2623C19.2871 70.0271 19.9071 70.647 20.6719 70.647H30.2625C31.0273 70.647 31.6473 70.0271 31.6473 69.2623V59.6716C31.6473 58.9068 31.0273 58.2869 30.2625 58.2869Z" fill="#DFE0E3"/>
<path d="M113.859 75.9294H103.602C102.837 75.9294 102.217 76.5494 102.217 77.3142V87.5716C102.217 88.3364 102.837 88.9563 103.602 88.9563H113.859C114.624 88.9563 115.244 88.3364 115.244 87.5716V77.3142C115.244 76.5494 114.624 75.9294 113.859 75.9294Z" fill="#DFE0E3"/>
<path d="M30.2625 75.2114H20.6719C19.9071 75.2114 19.2871 75.8314 19.2871 76.5962V86.1868C19.2871 86.9516 19.9071 87.5716 20.6719 87.5716H30.2625C31.0273 87.5716 31.6473 86.9516 31.6473 86.1868V76.5962C31.6473 75.8314 31.0273 75.2114 30.2625 75.2114Z" fill="#DFE0E3"/>
<path d="M6.20846 114.035H128.323C129.041 114.035 129.656 114.6 129.656 115.266V120.241C129.656 120.908 129.092 121.472 128.323 121.472H6.20846C5.49044 121.472 4.875 120.908 4.875 120.241V115.266C4.875 114.6 5.43916 114.035 6.20846 114.035Z" fill="#FFCA99"/>
<path d="M52.1621 78.699H82.3701C83.1394 78.699 83.7549 79.2631 83.7549 79.9299V84.9047C83.7549 85.5714 83.1394 86.1356 82.3701 86.1356H52.1621C51.3928 86.1356 50.7773 85.5714 50.7773 84.9047V79.9299C50.7773 79.2631 51.3928 78.699 52.1621 78.699Z" fill="#FFCA99"/>
</svg>
