<svg width="24" height="24" viewBox="0 0 24 24" fill="none" xmlns="http://www.w3.org/2000/svg">
<path d="M10.8342 3.36208C11.3111 2.39586 12.6889 2.39586 13.1658 3.36208L14.9303 6.93753C15.1197 7.32122 15.4857 7.58716 15.9092 7.64869L19.8549 8.22204C20.9212 8.37698 21.347 9.68734 20.5754 10.4394L17.7202 13.2225C17.4138 13.5212 17.274 13.9515 17.3463 14.3732L18.0204 18.303C18.2025 19.365 17.0878 20.1748 16.1341 19.6734L12.6049 17.818C12.2262 17.6189 11.7738 17.6189 11.3951 17.818L7.86588 19.6734C6.91216 20.1748 5.7975 19.365 5.97964 18.303L6.65366 14.3732C6.72598 13.9515 6.58617 13.5212 6.27978 13.2225L3.42461 10.4394C2.65304 9.68734 3.0788 8.37698 4.14509 8.22204L8.09083 7.64869C8.51426 7.58716 8.88029 7.32122 9.06965 6.93753L10.8342 3.36208Z" fill="#BFC1C7"/>
</svg>
